<svg width="24" height="24" viewBox="0 0 24 24" fill="none" xmlns="http://www.w3.org/2000/svg">
<path d="M12 21.25C11.8011 21.25 11.6103 21.329 11.4697 21.4697C11.329 21.6103 11.25 21.8011 11.25 22C11.25 22.1989 11.329 22.3897 11.4697 22.5303C11.6103 22.671 11.8011 22.75 12 22.75V21.25ZM7.955 22.684C8.05336 22.6899 8.15192 22.6764 8.24506 22.6442C8.33819 22.612 8.42407 22.5618 8.4978 22.4964C8.57153 22.4311 8.63166 22.3518 8.67476 22.2632C8.71787 22.1746 8.74309 22.0784 8.749 21.98C8.75491 21.8816 8.74139 21.7831 8.70921 21.6899C8.67703 21.5968 8.62681 21.5109 8.56144 21.4372C8.49607 21.3635 8.41682 21.3033 8.3282 21.2602C8.23959 21.2171 8.14336 21.1919 8.045 21.186L7.955 22.684ZM2.25 12C2.25 13.874 2.25 15.83 2.419 17.466C2.504 18.286 2.634 19.055 2.841 19.71C3.044 20.356 3.344 20.966 3.82 21.389L4.816 20.268C4.633 20.105 4.439 19.79 4.271 19.26C4.107 18.74 3.991 18.082 3.911 17.312C3.751 15.769 3.75 13.897 3.75 12H2.25ZM12 22.75C14.102 22.75 15.746 22.751 17.027 22.598C18.32 22.444 19.357 22.121 20.18 21.389L19.184 20.268C18.689 20.708 18.006 20.971 16.849 21.108C15.679 21.248 14.14 21.25 12 21.25V22.75ZM8.045 21.186C6.331 21.083 5.432 20.815 4.816 20.268L3.82 21.389C4.836 22.292 6.183 22.577 7.955 22.684L8.045 21.186ZM20.25 12.387C20.25 14.219 20.237 16.003 20.072 17.467C19.99 18.198 19.872 18.82 19.712 19.312C19.548 19.812 19.36 20.111 19.184 20.268L20.18 21.389C20.64 20.98 20.935 20.396 21.137 19.779C21.343 19.151 21.475 18.417 21.563 17.635C21.739 16.073 21.749 14.203 21.75 12.388L20.25 12.387Z" fill="#111111"/>
<path d="M14.66 14.202L17.664 13.301M9.34 14.201L3.332 12.4C2.737 12.221 2.439 12.132 2.25 11.918C2.21299 11.8762 2.17954 11.8314 2.15 11.784C2 11.541 2 11.231 2 10.609C2 8.159 2 6.934 2.673 6.107C2.803 5.947 2.948 5.802 3.107 5.673C3.934 5 5.159 5 7.609 5H16.391C18.841 5 20.066 5 20.893 5.673C21.053 5.803 21.198 5.948 21.327 6.107C22 6.934 22 8.159 22 10.609C22 11.231 22 11.541 21.85 11.784C21.8205 11.8314 21.787 11.8762 21.75 11.918C21.6 12.088 21.381 12.178 21 12.298" stroke="#111111" stroke-width="1.5" stroke-linecap="round"/>
<path d="M6.5 5C7.323 4.98 8.16 4.455 8.44 3.68L8.475 3.577L8.5 3.5C8.542 3.373 8.564 3.31 8.586 3.254C8.72726 2.90281 8.96529 2.59892 9.27241 2.37765C9.57954 2.15638 9.94315 2.02681 10.321 2.004C10.38 2 10.448 2 10.58 2H13.418C13.551 2 13.618 2 13.678 2.004C14.0558 2.02681 14.4195 2.15638 14.7266 2.37765C15.0337 2.59892 15.2717 2.90281 15.413 3.254C15.436 3.31 15.457 3.374 15.499 3.5L15.525 3.577C15.543 3.63 15.551 3.657 15.56 3.68C15.84 4.455 16.676 4.98 17.499 5" stroke="#111111" stroke-width="1.5"/>
<path d="M14 12.5H10C9.86739 12.5 9.74021 12.5527 9.64645 12.6464C9.55268 12.7402 9.5 12.8674 9.5 13V15.162C9.50002 15.2619 9.52994 15.3594 9.58591 15.4421C9.64187 15.5248 9.72131 15.5889 9.814 15.626L10.514 15.906C11.4679 16.2877 12.5321 16.2877 13.486 15.906L14.186 15.626C14.2787 15.5889 14.3581 15.5248 14.4141 15.4421C14.4701 15.3594 14.5 15.2619 14.5 15.162V13C14.5 12.8674 14.4473 12.7402 14.3536 12.6464C14.2598 12.5527 14.1326 12.5 14 12.5Z" stroke="#111111" stroke-width="1.5" stroke-linecap="round"/>
</svg>
