<svg width="32" height="32" viewBox="0 0 32 32" fill="none" xmlns="http://www.w3.org/2000/svg">
<path d="M16.134 25.5067L15.9999 25.4215L15.8658 25.5067L6.48639 31.4657L8.98002 20.214L9.01134 20.0727L8.9044 19.9751L0.588625 12.392L11.5262 11.4153L11.6787 11.4016L11.7358 11.2596L15.9999 0.669343L20.264 11.2596L20.3211 11.4016L20.4736 11.4153L31.4112 12.392L23.0954 19.9751L22.9885 20.0727L23.0198 20.214L25.5134 31.4657L16.134 25.5067Z" fill="#E9E9E9"/>
<path d="M16.134 25.5067L15.9999 25.4215L15.8658 25.5067L6.48639 31.4657L8.98002 20.214L9.01134 20.0727L8.9044 19.9751L0.588625 12.392L11.5262 11.4153L11.6787 11.4016L11.7358 11.2596L15.9999 0.669343L20.264 11.2596L20.3211 11.4016L20.4736 11.4153L31.4112 12.392L23.0954 19.9751L22.9885 20.0727L23.0198 20.214L25.5134 31.4657L16.134 25.5067Z" stroke="#864AF9" stroke-width="0.5"/>
<path d="M16.134 25.5067L15.9999 25.4215L15.8658 25.5067L6.48639 31.4657L8.98002 20.214L9.01134 20.0727L8.9044 19.9751L0.588625 12.392L11.5262 11.4153L11.6787 11.4016L11.7358 11.2596L15.9999 0.669343L20.264 11.2596L20.3211 11.4016L20.4736 11.4153L31.4112 12.392L23.0954 19.9751L22.9885 20.0727L23.0198 20.214L25.5134 31.4657L16.134 25.5067Z" stroke="black" stroke-opacity="0.2" stroke-width="0.5"/>
</svg>
