<svg width="7" height="7" viewBox="0 0 7 7" fill="none" xmlns="http://www.w3.org/2000/svg">
<path opacity="0.2" d="M3.23677 0.997875C3.36058 0.488737 4.08464 0.488737 4.20845 0.997875L4.46991 2.07306C4.52441 2.29716 4.72512 2.45492 4.95575 2.45492H6.0487C6.49773 2.45492 6.71916 3.0009 6.39696 3.31367L5.28714 4.39105C5.16005 4.51442 5.10771 4.69584 5.14957 4.86795L5.51262 6.36087C5.63113 6.84821 5.03837 7.18712 4.67851 6.83778L4.07088 6.24792C3.87688 6.0596 3.56833 6.0596 3.37434 6.24792L2.76671 6.83778C2.40685 7.18712 1.81409 6.84821 1.9326 6.36087L2.29565 4.86795C2.3375 4.69584 2.28517 4.51442 2.15807 4.39105L1.04825 3.31368C0.726057 3.0009 0.947481 2.45492 1.39652 2.45492H2.48946C2.7201 2.45492 2.92081 2.29716 2.9753 2.07306L3.23677 0.997875Z" fill="#332941"/>
</svg>
