<svg width="24" height="24" viewBox="0 0 24 24" fill="none" xmlns="http://www.w3.org/2000/svg">
<path d="M12.7091 17.7102L17.7091 12.7102C17.8002 12.6151 17.8715 12.5029 17.9191 12.3802C18.0191 12.1367 18.0191 11.8636 17.9191 11.6202C17.8715 11.4974 17.8002 11.3853 17.7091 11.2902L12.7091 6.29019C12.6159 6.19695 12.5052 6.12299 12.3834 6.07253C12.2616 6.02207 12.131 5.99609 11.9991 5.99609C11.7328 5.99609 11.4774 6.10188 11.2891 6.29019C11.1008 6.47849 10.995 6.73388 10.995 7.00019C10.995 7.26649 11.1008 7.52188 11.2891 7.71019L14.5891 11.0002L6.99913 11.0002C6.73391 11.0002 6.47956 11.1055 6.29202 11.2931C6.10448 11.4806 5.99913 11.735 5.99913 12.0002C5.99913 12.2654 6.10448 12.5198 6.29202 12.7073C6.47956 12.8948 6.73391 13.0002 6.99913 13.0002L14.5891 13.0002L11.2891 16.2902C11.1954 16.3831 11.121 16.4937 11.0702 16.6156C11.0195 16.7375 10.9933 16.8682 10.9933 17.0002C10.9933 17.1322 11.0195 17.2629 11.0702 17.3848C11.121 17.5066 11.1954 17.6172 11.2891 17.7102C11.3821 17.8039 11.4927 17.8783 11.6145 17.9291C11.7364 17.9798 11.8671 18.006 11.9991 18.006C12.1311 18.006 12.2618 17.9798 12.3837 17.9291C12.5056 17.8783 12.6162 17.8039 12.7091 17.7102Z" fill="white"/>
</svg>
