<svg width="40" height="40" viewBox="0 0 40 40" fill="none" xmlns="http://www.w3.org/2000/svg">
<path fill-rule="evenodd" clip-rule="evenodd" d="M4.8 0C2.14904 0 0 2.14904 0 4.8V35.2C0 37.851 2.14904 40 4.8 40H35.2C37.851 40 40 37.851 40 35.2V4.8C40 2.14904 37.851 0 35.2 0H4.8ZM14.965 27.6313C15.185 27.778 15.4857 27.8513 15.867 27.8513C16.2777 27.8513 16.593 27.7707 16.813 27.6093C17.0477 27.4333 17.2163 27.2427 17.319 27.0373C17.4217 26.832 17.4803 26.6927 17.495 26.6193L20.025 18.4133L22.555 26.6193C22.5843 26.6927 22.643 26.832 22.731 27.0373C22.8337 27.228 23.0023 27.4113 23.237 27.5873C23.4717 27.7633 23.787 27.8513 24.183 27.8513C24.5937 27.8513 24.9017 27.778 25.107 27.6313C25.327 27.4847 25.481 27.3233 25.569 27.1473C25.6717 26.9567 25.7377 26.8173 25.767 26.7293L29.903 14.7393C30.0204 14.3287 30.0716 13.9987 30.057 13.7493C30.057 13.4853 29.969 13.2653 29.793 13.0893C29.617 12.9133 29.309 12.7447 28.869 12.5833C28.4583 12.4367 28.1137 12.378 27.835 12.4073C27.571 12.4367 27.351 12.554 27.175 12.7593C27.0137 12.95 26.867 13.2507 26.735 13.6613L24.007 21.8453L21.675 13.7273C21.631 13.6247 21.565 13.478 21.477 13.2873C21.389 13.0967 21.2277 12.9207 20.993 12.7593C20.773 12.598 20.4357 12.5173 19.981 12.5173C19.585 12.5173 19.277 12.5907 19.057 12.7373C18.837 12.884 18.6757 13.0527 18.573 13.2433C18.485 13.434 18.419 13.6027 18.375 13.7493L16.065 21.8013L13.315 13.6393C13.183 13.2287 13.029 12.928 12.853 12.7373C12.6917 12.5467 12.479 12.444 12.215 12.4293C11.9657 12.4147 11.6357 12.4733 11.225 12.6053C10.5943 12.8107 10.213 13.0673 10.081 13.3753C9.949 13.6687 9.97833 14.1233 10.169 14.7393L14.305 26.7293C14.3343 26.8027 14.393 26.9347 14.481 27.1253C14.5837 27.316 14.745 27.4847 14.965 27.6313Z" fill="#2684FF"/>
</svg>
