<svg width="40" height="40" viewBox="0 0 40 40" fill="none" xmlns="http://www.w3.org/2000/svg">
<path fill-rule="evenodd" clip-rule="evenodd" d="M4.8 0C2.14904 0 0 2.14904 0 4.8V35.2C0 37.851 2.14904 40 4.8 40H35.2C37.851 40 40 37.851 40 35.2V4.8C40 2.14904 37.851 0 35.2 0H4.8ZM7.35017 25.2332C7.51257 25.3444 7.78156 25.4 8.1571 25.4C8.53265 25.4 8.80164 25.3444 8.96403 25.2332C9.12643 25.122 9.22793 24.9805 9.26853 24.8087C9.30913 24.6267 9.32943 24.4397 9.32943 24.2476V22.2613H11.2782C11.7045 22.2613 12.1359 22.1855 12.5724 22.0339C13.0088 21.8721 13.4097 21.6396 13.7751 21.3364C14.1507 21.023 14.4501 20.6339 14.6734 20.1689C14.9069 19.7039 15.0236 19.1631 15.0236 18.5465C15.0236 17.9197 14.9069 17.3739 14.6734 16.9089C14.4501 16.4439 14.1507 16.0547 13.7751 15.7414C13.4097 15.4179 13.0088 15.1803 12.5724 15.0287C12.1461 14.8771 11.7198 14.8013 11.2935 14.8013H8.17233C7.79678 14.8013 7.5278 14.8569 7.36541 14.9681C7.203 15.0792 7.1015 15.2258 7.0609 15.4078C7.0203 15.5796 7 15.7616 7 15.9536V24.2325C7 24.4245 7.0203 24.6115 7.0609 24.7935C7.1015 24.9754 7.19793 25.122 7.35017 25.2332ZM11.2935 19.9566H9.32943V17.106H11.2782C11.5624 17.106 11.8111 17.1667 12.0243 17.288C12.2476 17.4093 12.4201 17.576 12.5419 17.7883C12.6637 18.0006 12.7246 18.2483 12.7246 18.5313C12.7246 18.8649 12.6485 19.1378 12.4962 19.3501C12.3541 19.5624 12.1714 19.719 11.9481 19.8201C11.735 19.9111 11.5168 19.9566 11.2935 19.9566ZM16.3738 25.2332C16.5362 25.3444 16.795 25.4 17.1502 25.4H19.8603C20.6114 25.4 21.3016 25.2635 21.9309 24.9906C22.5703 24.7177 23.1286 24.3437 23.6057 23.8686C24.0827 23.3834 24.4532 22.8173 24.7171 22.1703C24.981 21.5133 25.1129 20.8057 25.1129 20.0476C25.1129 19.2995 24.981 18.6071 24.7171 17.9703C24.4532 17.3334 24.0827 16.7775 23.6057 16.3024C23.1286 15.8273 22.5754 15.4583 21.9461 15.1955C21.3168 14.9327 20.6368 14.8013 19.906 14.8013H17.1655C16.7899 14.7912 16.5209 14.8417 16.3585 14.9529C16.1961 15.0641 16.0946 15.2107 16.054 15.3926C16.0134 15.5645 15.9931 15.7464 15.9931 15.9385V24.2325C15.9931 24.4346 16.0185 24.6267 16.0693 24.8087C16.12 24.9805 16.2215 25.122 16.3738 25.2332ZM19.906 23.0801H18.3073V17.106H19.8907C20.449 17.106 20.9464 17.2374 21.3828 17.5002C21.8193 17.7529 22.1643 18.1067 22.4181 18.5616C22.6719 19.0165 22.7987 19.532 22.7987 20.1082C22.7987 20.6844 22.6719 21.1949 22.4181 21.6396C22.1643 22.0844 21.8193 22.4382 21.3828 22.701C20.9464 22.9537 20.4541 23.0801 19.906 23.0801ZM26.6657 25.2484C26.8281 25.3495 27.092 25.4 27.4574 25.4C27.8431 25.4 28.1121 25.3495 28.2643 25.2484C28.4267 25.1372 28.5282 24.9957 28.5688 24.8238C28.6094 24.6419 28.6297 24.4549 28.6297 24.2628V21.0635H31.7356C31.9488 21.0635 32.1315 21.0483 32.2837 21.018C32.4461 20.9876 32.573 20.9068 32.6643 20.7754C32.7557 20.6339 32.8014 20.4014 32.8014 20.0779C32.8014 19.7443 32.7557 19.5068 32.6643 19.3652C32.573 19.2237 32.4461 19.1378 32.2837 19.1075C32.1315 19.0771 31.9538 19.062 31.7508 19.062H28.6297V17.106H31.6277C31.8307 17.106 32.0184 17.0908 32.191 17.0605C32.3737 17.0201 32.5209 16.919 32.6325 16.7573C32.7442 16.5955 32.8 16.3327 32.8 15.9688C32.8 15.5847 32.7442 15.3117 32.6325 15.15C32.531 14.9883 32.394 14.8922 32.2214 14.8619C32.0489 14.8215 31.8611 14.8013 31.6581 14.8013H27.5031C27.0565 14.8013 26.7469 14.8821 26.5743 15.0439C26.4018 15.2056 26.3155 15.5089 26.3155 15.9536V24.2476C26.3155 24.4397 26.3307 24.6267 26.3612 24.8087C26.4018 24.9906 26.5033 25.1372 26.6657 25.2484Z" fill="#EA3434"/>
</svg>
