<svg width="64" height="46" viewBox="0 0 64 46" fill="none" xmlns="http://www.w3.org/2000/svg">
<rect y="45.5703" width="45.5705" height="5.52917" rx="2.76459" transform="rotate(-90 0 45.5703)" fill="#E9EDF7"/>
<rect y="45.5703" width="37.508" height="5.52918" rx="2.76459" transform="rotate(-90 0 45.5703)" fill="#864AF9"/>
<rect x="14.6191" y="45.5703" width="45.5705" height="5.52917" rx="2.76459" transform="rotate(-90 14.6191 45.5703)" fill="#E9EDF7"/>
<rect x="14.6191" y="45.5703" width="23.4863" height="5.52917" rx="2.76458" transform="rotate(-90 14.6191 45.5703)" fill="#864AF9"/>
<rect x="29.2344" y="45.5703" width="45.5705" height="5.52917" rx="2.76458" transform="rotate(-90 29.2344 45.5703)" fill="#E9EDF7"/>
<rect x="29.2344" y="45.5703" width="31.5488" height="5.52917" rx="2.76458" transform="rotate(-90 29.2344 45.5703)" fill="#864AF9"/>
<rect x="43.8535" y="45.5703" width="45.5705" height="5.52911" rx="2.76456" transform="rotate(-90 43.8535 45.5703)" fill="#E9EDF7"/>
<rect x="43.8535" y="45.5703" width="41.364" height="5.52917" rx="2.76458" transform="rotate(-90 43.8535 45.5703)" fill="#864AF9"/>
<rect x="58.4707" y="45.5703" width="45.5705" height="5.52916" rx="2.76458" transform="rotate(-90 58.4707 45.5703)" fill="#E9EDF7"/>
<rect x="58.4707" y="45.5703" width="10.8668" height="5.52916" rx="2.76458" transform="rotate(-90 58.4707 45.5703)" fill="#864AF9"/>
</svg>
