<svg width="22" height="22" viewBox="0 0 22 22" fill="none" xmlns="http://www.w3.org/2000/svg">
<path d="M8 9L11.258 11.444C11.4598 11.5954 11.7114 11.6649 11.9624 11.6385C12.2133 11.6122 12.445 11.492 12.611 11.302L19 4" stroke="#7360DF" stroke-width="3" stroke-linecap="round"/>
<path d="M20 10.9998C20 12.8804 19.411 14.7137 18.3157 16.2423C17.2203 17.7708 15.6736 18.9179 13.8929 19.5224C12.1122 20.1269 10.1868 20.1583 8.3873 19.6124C6.58776 19.0665 5.00442 17.9706 3.85967 16.4787C2.71492 14.9867 2.06627 13.1736 2.00481 11.2941C1.94335 9.41461 2.47218 7.56305 3.51702 5.9995C4.56187 4.43595 6.07023 3.23896 7.83027 2.57665C9.5903 1.91435 11.5136 1.81999 13.33 2.30684" stroke="#7360DF" stroke-width="3" stroke-linecap="round"/>
</svg>
