<svg width="91" height="91" viewBox="0 0 91 91" fill="none" xmlns="http://www.w3.org/2000/svg">
<g clip-path="url(#clip0_1666_153)">
<path d="M67.5298 16.9484C67.2265 16.9484 66.9232 16.8726 66.6578 16.7209C59.3778 12.9672 53.0836 11.3747 45.5382 11.3747C38.0307 11.3747 30.9023 13.1568 24.4186 16.7209C23.5086 17.2138 22.3711 16.8726 21.8403 15.9626C21.3473 15.0526 21.6886 13.8772 22.5986 13.3843C29.6511 9.55467 37.3861 7.58301 45.5382 7.58301C53.6144 7.58301 60.6669 9.36509 68.4019 13.3463C69.3498 13.8393 69.6911 14.9768 69.1982 15.8868C68.8569 16.5693 68.2123 16.9484 67.5298 16.9484ZM13.2711 36.8547C12.8919 36.8547 12.5128 36.7409 12.1715 36.5134C11.2994 35.9068 11.1098 34.7313 11.7165 33.8593C15.4703 28.5509 20.2478 24.3801 25.9353 21.4605C37.8411 15.318 53.0836 15.2801 65.0273 21.4226C70.7148 24.3422 75.4923 28.4751 79.2461 33.7455C79.8528 34.5797 79.6632 35.793 78.7911 36.3997C77.919 37.0063 76.7436 36.8168 76.1369 35.9447C72.7244 31.1672 68.4019 27.4134 63.2832 24.7972C52.4011 19.2234 38.4857 19.2234 27.6415 24.8351C22.4848 27.4893 18.1623 31.2809 14.7498 36.0584C14.4465 36.5893 13.8778 36.8547 13.2711 36.8547ZM36.969 82.6201C36.4761 82.6201 35.9832 82.4305 35.6419 82.0513C32.3432 78.7526 30.5611 76.6293 28.0207 72.0413C25.4044 67.3776 24.0394 61.6901 24.0394 55.5855C24.0394 44.3243 33.6703 35.1484 45.5003 35.1484C57.3303 35.1484 66.9611 44.3243 66.9611 55.5855C66.9611 56.6472 66.1269 57.4813 65.0653 57.4813C64.0036 57.4813 63.1694 56.6472 63.1694 55.5855C63.1694 46.4097 55.2448 38.9401 45.5003 38.9401C35.7557 38.9401 27.8311 46.4097 27.8311 55.5855C27.8311 61.0455 29.0444 66.0884 31.3573 70.1834C33.784 74.5438 35.4523 76.4018 38.3719 79.3593C39.0923 80.1176 39.0923 81.293 38.3719 82.0513C37.9548 82.4305 37.4619 82.6201 36.969 82.6201ZM64.1553 75.6055C59.6432 75.6055 55.6619 74.468 52.4011 72.2309C46.7515 68.4013 43.3769 62.183 43.3769 55.5855C43.3769 54.5238 44.2111 53.6897 45.2728 53.6897C46.3344 53.6897 47.1686 54.5238 47.1686 55.5855C47.1686 60.9318 49.8986 65.9747 54.5244 69.0838C57.2165 70.9038 60.3636 71.7759 64.1553 71.7759C65.0653 71.7759 66.5819 71.6622 68.0986 71.3968C69.1223 71.2072 70.1082 71.8897 70.2978 72.9513C70.4873 73.9751 69.8048 74.9609 68.7432 75.1505C66.5819 75.5676 64.6861 75.6055 64.1553 75.6055ZM56.534 83.4163C56.3823 83.4163 56.1928 83.3784 56.0411 83.3405C50.0123 81.6722 46.069 79.4351 41.9361 75.378C36.6278 70.1076 33.7082 63.093 33.7082 55.5855C33.7082 49.443 38.9407 44.438 45.3865 44.438C51.8323 44.438 57.0648 49.443 57.0648 55.5855C57.0648 59.6426 60.5911 62.9413 64.9515 62.9413C69.3119 62.9413 72.8382 59.6426 72.8382 55.5855C72.8382 41.2909 60.5153 29.6884 45.3486 29.6884C34.5803 29.6884 24.7219 35.6793 20.2857 44.9688C18.8069 48.0401 18.0486 51.6422 18.0486 55.5855C18.0486 58.543 18.314 63.2068 20.589 69.2734C20.9682 70.2593 20.4753 71.3588 19.4894 71.7001C18.5036 72.0793 17.404 71.5484 17.0628 70.6005C15.2048 65.6334 14.2948 60.7043 14.2948 55.5855C14.2948 51.0355 15.1669 46.9026 16.8732 43.3005C21.9161 32.7218 33.1015 25.8588 45.3486 25.8588C62.6007 25.8588 76.6298 39.1676 76.6298 55.5476C76.6298 61.6901 71.3973 66.6951 64.9515 66.6951C58.5057 66.6951 53.2732 61.6901 53.2732 55.5476C53.2732 51.4905 49.7469 48.1918 45.3865 48.1918C41.0261 48.1918 37.4998 51.4905 37.4998 55.5476C37.4998 62.0313 40.0023 68.098 44.5903 72.648C48.1923 76.2122 51.6428 78.1838 56.989 79.6626C58.0128 79.928 58.5815 80.9897 58.3161 81.9755C58.1265 82.8476 57.3303 83.4163 56.534 83.4163Z" fill="#864AF9"/>
</g>
<defs>
<clipPath id="clip0_1666_153">
<rect width="91" height="91" fill="white"/>
</clipPath>
</defs>
</svg>
